<svg width="512" height="512" xmlns="http://www.w3.org/2000/svg">
 <g id="Layer_1">
  <title>Layer 1</title>
  <g>
   <circle fill="#0091e2" r="254.99995" cy="255.5409" cx="256.45908"/>
   <path fill="#fff" d="m413.49324,230.38954c-0.79687,-0.64746 -8.01855,-6.07617 -23.25879,-6.07617c-4.03418,0 -8.06836,0.29883 -12.05273,1.0459c-2.93848,-20.27051 -19.67285,-30.13183 -20.41992,-30.58007l-4.08398,-2.39062l-2.68945,3.88477c-3.38672,5.22949 -5.82715,10.95703 -7.27148,17.0332c-2.73926,11.55469 -1.0957,22.41211 4.78125,31.67578c-7.07226,3.93457 -18.47754,4.93066 -20.76855,4.98047l-188.3115,0c-4.93066,0 -8.91504,3.98437 -8.91504,8.91504c-0.19922,16.48535 2.58984,32.87109 8.21777,48.36035c6.47461,17.0332 16.13672,29.53418 28.6875,37.2041c14.04492,8.61621 36.90527,13.54687 62.85351,13.54687c11.7041,0.0498 23.4082,-1.0459 34.91308,-3.1875c15.9873,-2.93848 31.37695,-8.5166 45.52148,-16.53515c11.6543,-6.77344 22.16308,-15.33984 31.07812,-25.45019c14.8916,-16.88379 23.80664,-35.70996 30.43066,-52.39452l2.63965,0c16.33594,0 26.39648,-6.52441 31.9248,-12.00293c3.68555,-3.48633 6.57422,-7.71973 8.41699,-12.45117l1.14551,-3.43652l-2.83887,-2.1416zm-256.64352,14.14453l25.25097,0c1.19531,0 2.19141,-0.99609 2.19141,-2.19141l0,-22.46191c0,-1.19531 -0.99609,-2.19141 -2.19141,-2.24121l-25.25097,0c-1.19531,0 -2.19141,0.99609 -2.19141,2.19141l0,22.51172c0,1.24512 0.99609,2.19141 2.19141,2.19141m34.81347,0l25.25097,0c1.19531,0 2.19141,-0.99609 2.19141,-2.19141l0,-22.46191c0,-1.19531 -0.99609,-2.19141 -2.19141,-2.24121l-25.25097,0c-1.24512,0 -2.24121,0.99609 -2.24121,2.24121l0,22.46191c0,1.24512 0.99609,2.19141 2.24121,2.19141m35.26171,0.0498l25.25097,0c1.19531,0 2.19141,-0.99609 2.19141,-2.19141l0,-22.46191c0,-1.19531 -0.99609,-2.19141 -2.19141,-2.24121l-25.25097,0c-1.19531,0 -2.19141,0.99609 -2.19141,2.19141l0,22.51172c0,1.19531 0.99609,2.1416 2.19141,2.19141m34.91308,0l25.25097,0c1.19531,0 2.19141,-0.99609 2.24121,-2.19141l0,-22.46191c0,-1.24512 -0.99609,-2.24121 -2.24121,-2.24121l-25.25097,0c-1.19531,0 -2.19141,0.99609 -2.19141,2.19141l0,22.51172c0,1.19531 0.94629,2.19141 2.19141,2.19141m-70.2246,-32.37304l25.25097,0c1.19531,0 2.19141,-0.99609 2.19141,-2.24121l0,-22.46191c0,-1.19531 -0.99609,-2.19141 -2.19141,-2.19141l-25.25097,0c-1.24512,0 -2.19141,0.99609 -2.24121,2.19141l0,22.46191c0.0498,1.24512 1.0459,2.24121 2.24121,2.24121m35.31152,0l25.25097,0c1.19531,0 2.19141,-0.99609 2.19141,-2.24121l0,-22.46191c0,-1.19531 -0.99609,-2.19141 -2.19141,-2.19141l-25.25097,0c-1.19531,0 -2.19141,0.99609 -2.19141,2.19141l0,22.46191c0,1.24512 0.99609,2.24121 2.19141,2.24121m34.91308,0l25.25097,0c1.24512,0 2.19141,-0.99609 2.24121,-2.24121l0,-22.46191c0,-1.24512 -0.99609,-2.19141 -2.24121,-2.19141l-25.25097,0c-1.19531,0 -2.19141,0.99609 -2.19141,2.19141l0,22.46191c0,1.24512 0.94629,2.24121 2.19141,2.24121m0,-32.32324l25.25097,0c1.24512,0 2.24121,-0.99609 2.24121,-2.24121l0,-22.51172c0,-1.19531 -0.99609,-2.19141 -2.24121,-2.19141l-25.25097,0c-1.19531,0 -2.19141,0.99609 -2.19141,2.19141l0,22.51172c0,1.24512 0.94629,2.24121 2.19141,2.24121m35.1621,64.69628l25.25097,0c1.19531,0 2.19141,-0.99609 2.19141,-2.19141l0,-22.46191c0,-1.24512 -0.99609,-2.19141 -2.19141,-2.24121l-25.25097,0c-1.19531,0 -2.19141,0.99609 -2.19141,2.19141l0,22.51172c0,1.19531 0.99609,2.19141 2.19141,2.19141"/>
  </g>
  <g>
   <g>
    <path d="m511.959,185.2115l0.041,-170.167l-67.587,67.587l-7.574,-7.574c-48.332,-48.332 -112.594,-74.95 -180.946,-74.95c-141.101,-0.001 -255.893,114.793 -255.893,255.892s114.792,255.893 255.893,255.893s255.892,-114.794 255.892,-255.893l-49.528,0c0,113.79 -92.575,206.365 -206.365,206.365s-206.364,-92.575 -206.364,-206.365s92.575,-206.365 206.365,-206.365c55.124,0 106.947,21.465 145.925,60.443l7.574,7.574l-67.58,67.58l170.147,-0.02z"/>
   </g>
  </g>
  <g/>
  <g/>
  <g/>
  <g/>
  <g/>
  <g/>
  <g/>
  <g/>
  <g/>
  <g/>
  <g/>
  <g/>
  <g/>
  <g/>
  <g/>
 </g>

</svg>